<?xml version="1.0" encoding="UTF-8" standalone="no"?>
<svg
   xmlns:dc="http://purl.org/dc/elements/1.1/"
   xmlns:cc="http://creativecommons.org/ns#"
   xmlns:rdf="http://www.w3.org/1999/02/22-rdf-syntax-ns#"
   xmlns:svg="http://www.w3.org/2000/svg"
   xmlns="http://www.w3.org/2000/svg"
   id="svg8"
   version="1.1"
   viewBox="0 0 50 25"
   height="25mm"
   width="50mm">
  <defs
     id="defs2" />
  <metadata
     id="metadata5">
    <rdf:RDF>
      <cc:Work
         rdf:about="">
        <dc:format>image/svg+xml</dc:format>
        <dc:type
           rdf:resource="http://purl.org/dc/dcmitype/StillImage" />
        <dc:title></dc:title>
      </cc:Work>
    </rdf:RDF>
  </metadata>
  <g
     transform="translate(0,-272)"
     id="layer1">
    <flowRoot
       transform="matrix(0.26458333,0,0,0.26458333,-0.66713483,0.98314607)"
       style="font-style:normal;font-variant:normal;font-weight:normal;font-stretch:normal;font-size:40px;line-height:1.25;font-family:sans-serif;-inkscape-font-specification:sans-serif;letter-spacing:0px;word-spacing:0px;fill:#000000;fill-opacity:1;stroke:none"
       id="flowRoot4485"
       xml:space="preserve"><flowRegion
         id="flowRegion4487"><rect
           y="202.51968"
           x="88.571426"
           height="245.71428"
           width="571.42859"
           id="rect4489" /></flowRegion><flowPara
         id="flowPara4491"></flowPara></flowRoot>    <g
       id="text4495"
       style="font-style:normal;font-variant:normal;font-weight:normal;font-stretch:normal;font-size:14.11111069px;line-height:1.25;font-family:'Franklin Gothic Heavy';-inkscape-font-specification:'Franklin Gothic Heavy, Normal';font-variant-ligatures:normal;font-variant-caps:normal;font-variant-numeric:normal;font-feature-settings:normal;text-align:start;letter-spacing:0px;word-spacing:0px;writing-mode:lr-tb;text-anchor:start;fill:#000000;fill-opacity:1;stroke:none;stroke-width:0.26458332"
       aria-label="DEMO">
      <path
         id="path4499"
         style="font-style:normal;font-variant:normal;font-weight:normal;font-stretch:normal;font-size:14.11111069px;font-family:'Franklin Gothic Heavy';-inkscape-font-specification:'Franklin Gothic Heavy, Normal';font-variant-ligatures:normal;font-variant-caps:normal;font-variant-numeric:normal;font-feature-settings:normal;text-align:start;writing-mode:lr-tb;text-anchor:start;fill:#6f116f;fill-opacity:1;stroke-width:0.26458332"
         d="m 5.3115294,289.80658 v -9.40511 h 3.6380207 q 2.3702259,0 3.5484479,1.4056 1.178223,1.4056 1.178223,3.25217 0,2.1084 -1.267795,3.43131 -1.260905,1.31603 -3.2797309,1.31603 z m 2.8869899,-2.16352 h 0.7510308 q 0.7165799,0 1.2057839,-0.69591 0.496093,-0.69591 0.496093,-1.8948 0,-1.02664 -0.440972,-1.77078 -0.434082,-0.74414 -1.2609049,-0.74414 H 8.1985193 Z" />
      <path
         id="path4501"
         style="font-style:normal;font-variant:normal;font-weight:normal;font-stretch:normal;font-size:14.11111069px;font-family:'Franklin Gothic Heavy';-inkscape-font-specification:'Franklin Gothic Heavy, Normal';font-variant-ligatures:normal;font-variant-caps:normal;font-variant-numeric:normal;font-feature-settings:normal;text-align:start;writing-mode:lr-tb;text-anchor:start;fill:#6f116f;fill-opacity:1;stroke-width:0.26458332"
         d="m 21.978901,287.56038 v 2.2462 h -7.076226 v -9.40511 h 7.076226 v 2.17041 h -4.244358 v 1.36426 h 3.431315 v 2.08772 h -3.431315 v 1.53652 z" />
      <path
         id="path4503"
         style="font-style:normal;font-variant:normal;font-weight:normal;font-stretch:normal;font-size:14.11111069px;font-family:'Franklin Gothic Heavy';-inkscape-font-specification:'Franklin Gothic Heavy, Normal';font-variant-ligatures:normal;font-variant-caps:normal;font-variant-numeric:normal;font-feature-settings:normal;text-align:start;writing-mode:lr-tb;text-anchor:start;fill:#6f116f;fill-opacity:1;stroke-width:0.26458332"
         d="m 33.340825,280.40147 v 9.40511 h -2.680284 v -6.72483 l -1.743218,6.72483 h -1.832791 l -1.80523,-6.72483 v 6.72483 h -2.16352 v -9.40511 h 3.768934 l 1.364258,4.99539 1.302246,-4.99539 z" />
      <path
         id="path4505"
         style="font-style:normal;font-variant:normal;font-weight:normal;font-stretch:normal;font-size:14.11111069px;font-family:'Franklin Gothic Heavy';-inkscape-font-specification:'Franklin Gothic Heavy, Normal';font-variant-ligatures:normal;font-variant-caps:normal;font-variant-numeric:normal;font-feature-settings:normal;text-align:start;writing-mode:lr-tb;text-anchor:start;fill:#6f116f;fill-opacity:1;stroke-width:0.26458332"
         d="m 39.059683,289.95127 q -1.984375,0 -3.238389,-1.31602 -1.247125,-1.31603 -1.247125,-3.52089 0,-2.1084 1.192003,-3.47955 1.198893,-1.37803 3.321072,-1.37803 1.963705,0 3.197049,1.29535 1.240234,1.29536 1.240234,3.45888 0,2.23931 -1.247125,3.58979 -1.247124,1.35047 -3.217719,1.35047 z m -0.01378,-2.13596 q 0.73036,0 1.047309,-0.63389 0.323839,-0.64079 0.323839,-2.33578 0,-2.45291 -1.316026,-2.45291 -1.41938,0 -1.41938,2.79742 0,2.62516 1.364258,2.62516 z" />
    </g>
    <path
       id="rect4497"
       d="M 2.1800876,277.11511 H 47.284256 v 15.34722 H 2.1800876 Z"
       style="fill:none;fill-opacity:1;stroke:#6f116f;stroke-width:2.0999999;stroke-linejoin:round;stroke-miterlimit:4;stroke-dasharray:none;stroke-opacity:0.94117647" />
  </g>
</svg>
