<?xml version="1.0" encoding="UTF-8" standalone="no"?>
<svg
   xmlns:dc="http://purl.org/dc/elements/1.1/"
   xmlns:cc="http://creativecommons.org/ns#"
   xmlns:rdf="http://www.w3.org/1999/02/22-rdf-syntax-ns#"
   xmlns:svg="http://www.w3.org/2000/svg"
   xmlns="http://www.w3.org/2000/svg"
   xmlns:sodipodi="http://sodipodi.sourceforge.net/DTD/sodipodi-0.dtd"
   xmlns:inkscape="http://www.inkscape.org/namespaces/inkscape"
   id="svg8"
   version="1.1"
   viewBox="0 0 50 25"
   height="25mm"
   width="50mm"
   sodipodi:docname="ubitok-logo.svg"
   inkscape:version="0.92.1 r15371">
  <sodipodi:namedview
     pagecolor="#ffffff"
     bordercolor="#666666"
     borderopacity="1"
     objecttolerance="10"
     gridtolerance="10"
     guidetolerance="10"
     inkscape:pageopacity="0"
     inkscape:pageshadow="2"
     inkscape:window-width="1449"
     inkscape:window-height="991"
     id="namedview14"
     showgrid="false"
     inkscape:zoom="1.5187083"
     inkscape:cx="94.488189"
     inkscape:cy="47.244094"
     inkscape:window-x="175"
     inkscape:window-y="50"
     inkscape:window-maximized="0"
     inkscape:current-layer="layer1" />
  <defs
     id="defs2" />
  <metadata
     id="metadata5">
    <rdf:RDF>
      <cc:Work
         rdf:about="">
        <dc:format>image/svg+xml</dc:format>
        <dc:type
           rdf:resource="http://purl.org/dc/dcmitype/StillImage" />
        <dc:title />
      </cc:Work>
    </rdf:RDF>
  </metadata>
  <g
     transform="translate(0,-272)"
     id="layer1">
    <g
      style="fill:#6f116f;fill-opacity:1;stroke:none"
      id="ubitokdotio">
      <path
         d="m 10.777637,280.70922 v 5.60586 q 0,1.5937 -0.9487795,2.29444 -0.9425781,0.69453 -2.4618652,0.69453 -1.5999023,0 -2.5734863,-0.66973 -0.9673828,-0.66973 -0.9673828,-2.18281 v -5.74229 h 2.6416992 v 5.43843 q 0,0.60772 0.254248,0.88677 0.2604493,0.27905 0.8247559,0.27905 0.4712891,0 0.7689453,-0.19844 0.3038574,-0.20464 0.359668,-0.45888 0.062012,-0.25425 0.062012,-0.99219 v -4.95474 z"
         id="path4491" />
      <path
         d="m 12.594996,288.51382 h -1.240234 v -7.52409 h 2.166276 v 2.5852 q 0.451996,-0.78272 1.438672,-0.78272 0.694531,0 1.1796,0.3638 0.48507,0.3638 0.722092,1.0418 0.237023,0.67248 0.237023,1.41662 0,1.35599 -0.606337,2.18832 -0.606337,0.82683 -1.807986,0.82683 -1.185113,0 -1.802474,-0.88746 -0.176389,0.33073 -0.286632,0.7717 z m 0.926042,-2.0891 q 0,0.82682 0.639409,0.82682 0.347266,0 0.529167,-0.29766 0.187413,-0.30317 0.187413,-1.24023 0,-1.01975 -0.209462,-1.27882 -0.209461,-0.26458 -0.518142,-0.26458 -0.242535,0 -0.43546,0.18741 -0.192925,0.18741 -0.192925,0.5457 z"
         id="path4493" />
      <path
         d="m 20.129718,280.75271 v 1.74184 h -2.199349 v -1.74184 z m 0,2.15525 v 5.60586 h -2.199349 v -5.60586 z"
         id="path4495" />
      <path
         d="m 24.769778,282.07701 v 6.43681 h -2.461865 v -6.43681 h -1.754932 v -2.02779 h 5.971729 v 2.02779 z"
         id="path4497" />
      <path
         d="m 28.399229,288.62958 q -1.394575,0 -2.215886,-0.86541 -0.821311,-0.87092 -0.821311,-2.0395 0,-1.25677 0.854384,-2.09462 0.859896,-0.83784 2.232422,-0.83784 1.38355,0 2.221398,0.82682 0.843359,0.82682 0.843359,2.07257 0,1.25677 -0.854384,2.10013 -0.848871,0.83785 -2.259982,0.83785 z m 0.03307,-1.33394 q 0.512631,0 0.622874,-0.52917 0.115755,-0.53468 0.115755,-1.11346 0,-0.78823 -0.159852,-1.1355 -0.159853,-0.34726 -0.573264,-0.34726 -0.380339,0 -0.556728,0.35829 -0.176389,0.35829 -0.176389,1.1796 0,0.96462 0.181901,1.27882 0.181901,0.30868 0.545703,0.30868 z"
         id="path4499" />
      <path
         d="m 37.885739,282.90796 -1.692231,1.92926 1.885156,3.6766 h -2.271007 l -1.052821,-2.24344 -0.600825,0.70004 v 1.5434 h -2.061545 v -7.52409 h 2.061545 v 3.0372 q 0,0.12678 -0.01654,1.01424 0.198437,-0.28112 0.402387,-0.51263 l 1.405599,-1.62058 z"
         id="path4501" />
      <path
         d="m 39.784674,285.49062 v 1.3832 h -1.44005 v -1.3832 z"
         id="path4503" />
      <path
         d="m 42.043278,281.53806 v 1.19751 h -1.512052 v -1.19751 z m 0,1.48173 v 3.85403 h -1.512052 v -3.85403 z"
         id="path4505" />
      <path
         d="m 44.71874,286.9534 q -0.95877,0 -1.523421,-0.59496 -0.564651,-0.59876 -0.564651,-1.40216 0,-0.86403 0.587389,-1.44005 0.591178,-0.57602 1.53479,-0.57602 0.951191,0 1.527211,0.56844 0.579809,0.56844 0.579809,1.42489 0,0.86403 -0.587389,1.44384 -0.583599,0.57602 -1.553738,0.57602 z m 0.02274,-0.91708 q 0.352433,0 0.428225,-0.3638 0.07958,-0.36759 0.07958,-0.7655 0,-0.54192 -0.109899,-0.78066 -0.109898,-0.23875 -0.394119,-0.23875 -0.261482,0 -0.38275,0.24633 -0.121267,0.24632 -0.121267,0.81097 0,0.66318 0.125057,0.87919 0.125057,0.21222 0.375171,0.21222 z"
         id="path4507" />
    </g>
  </g>
</svg>
